<svg xmlns="http://www.w3.org/2000/svg" width="43" height="43" viewBox="0 0 43 43">
  <g id="Group_6426" data-name="Group 6426" transform="translate(-57 -149)">
    <g id="Group_6424" data-name="Group 6424">
      <g id="Call">
        <circle id="Ellipse_33" data-name="Ellipse 33" cx="21.5" cy="21.5" r="21.5" transform="translate(57 149)" fill="#1f8ced"/>
        <circle id="Ellipse_35" data-name="Ellipse 35" cx="18.5" cy="18.5" r="18.5" transform="translate(60 152)" fill="#fff"/>
        <path id="Icon_zocial-call" data-name="Icon zocial-call" d="M3.309,6.855a1.465,1.465,0,0,1,.373-.8L6.666,3.075q.349-.3.522.1L9.6,7.7a.651.651,0,0,1-.124.771L8.382,9.565a1.237,1.237,0,0,0-.348.771A3.8,3.8,0,0,0,8.8,12.251a16.352,16.352,0,0,0,1.517,1.99l.771.795c.232.232.53.518.9.858a15.013,15.013,0,0,0,1.8,1.343,4.034,4.034,0,0,0,1.977.833,1.082,1.082,0,0,0,.8-.323l1.294-1.293a.546.546,0,0,1,.745-.1l4.353,2.561a.363.363,0,0,1,.2.261.318.318,0,0,1-.1.286L20.07,22.446a1.461,1.461,0,0,1-.795.372,6.016,6.016,0,0,1-2.749-.336,12.436,12.436,0,0,1-2.834-1.355q-1.306-.845-2.425-1.715t-1.79-1.492L8.831,17.3q-.248-.248-.659-.684T6.741,14.9a24.974,24.974,0,0,1-1.766-2.5A14.579,14.579,0,0,1,3.682,9.627,5.9,5.9,0,0,1,3.309,6.855Z" transform="translate(65.312 158.053)" fill="#1f8ced"/>
      </g>
    </g>
  </g>
</svg>
