<svg xmlns="http://www.w3.org/2000/svg" width="61" height="61" viewBox="0 0 61 61">
  <g id="Cut" transform="translate(0.28)">
    <circle id="Ellipse_42" data-name="Ellipse 42" cx="30.5" cy="30.5" r="30.5" transform="translate(-0.28)" fill="#ff4747"/>
    <path id="Icon_zocial-call" data-name="Icon zocial-call" d="M3.316,7.548a1.725,1.725,0,0,1,.439-.937L7.269,3.1q.41-.351.615.117l2.84,5.329a.767.767,0,0,1-.146.908L9.29,10.74a1.457,1.457,0,0,0-.41.908A4.47,4.47,0,0,0,9.787,13.9a19.254,19.254,0,0,0,1.786,2.343l.908.936c.274.274.624.61,1.055,1.01a17.677,17.677,0,0,0,2.122,1.581,4.749,4.749,0,0,0,2.328.981,1.275,1.275,0,0,0,.937-.381l1.523-1.523a.643.643,0,0,1,.877-.117l5.125,3.016a.428.428,0,0,1,.234.307.374.374,0,0,1-.117.337l-3.514,3.514a1.721,1.721,0,0,1-.936.438,7.084,7.084,0,0,1-3.236-.4,14.642,14.642,0,0,1-3.337-1.6q-1.537-1-2.855-2.019T10.58,20.578l-.761-.733q-.292-.292-.776-.805T7.357,17.02a29.406,29.406,0,0,1-2.079-2.943,17.166,17.166,0,0,1-1.523-3.265A6.945,6.945,0,0,1,3.316,7.548Z" transform="translate(15.439 15.76)" fill="#fff"/>
  </g>
</svg>
