<svg xmlns="http://www.w3.org/2000/svg" width="16.421" height="16.333" viewBox="0 0 16.421 16.333">
  <g id="Group_6454" data-name="Group 6454" transform="translate(-343.579 -82.667)">
    <g id="Group_6453" data-name="Group 6453">
      <g id="Group_6452" data-name="Group 6452">
        <g id="Group_6451" data-name="Group 6451">
          <g id="Group_6450" data-name="Group 6450">
            <g id="edit" transform="translate(343.579 82.398)">
              <path id="Path_3356" data-name="Path 3356" d="M15.95,28.284a.43.43,0,0,0-.43.43v3.822a1.293,1.293,0,0,1-1.291,1.291H2.152A1.293,1.293,0,0,1,.861,32.536V21.32a1.293,1.293,0,0,1,1.291-1.291H5.973a.43.43,0,0,0,0-.861H2.152A2.154,2.154,0,0,0,0,21.32V32.536a2.154,2.154,0,0,0,2.152,2.152H14.228a2.154,2.154,0,0,0,2.152-2.152V28.714A.431.431,0,0,0,15.95,28.284Zm0,0" transform="translate(0 -18.086)" fill="#003165"/>
              <path id="Path_3357" data-name="Path 3357" d="M156.367,38.612l6.284-6.284,2.027,2.027-6.284,6.284Zm0,0" transform="translate(-149.637 -30.68)" fill="#003165"/>
              <path id="Path_3358" data-name="Path 3358" d="M132.543,199.459l2.24-.62-1.619-1.619Zm0,0" transform="translate(-126.838 -188.474)" fill="#003165"/>
              <path id="Path_3359" data-name="Path 3359" d="M318.505.583a1.077,1.077,0,0,0-1.522,0l-.456.456,2.027,2.027.456-.456a1.077,1.077,0,0,0,0-1.522Zm0,0" transform="translate(-302.904)" fill="#003165"/>
            </g>
          </g>
        </g>
      </g>
    </g>
  </g>
</svg>
