<svg xmlns="http://www.w3.org/2000/svg" width="22" height="18.39" viewBox="0 0 22 18.39">
  <g id="location" transform="translate(-15.253 -23.251)">
    <ellipse id="Ellipse_13" data-name="Ellipse 13" cx="11" cy="2.116" rx="11" ry="2.116" transform="translate(15.253 37.41)" fill="#bce551"/>
    <path id="Path_994" data-name="Path 994" d="M41.286,23.251a6.619,6.619,0,0,0-6.619,6.619c0,4.688,6.619,9.987,6.619,9.987s6.619-5.506,6.619-9.987a6.619,6.619,0,0,0-6.619-6.619Zm0,10.094a3.475,3.475,0,1,1,3.475-3.475A3.475,3.475,0,0,1,41.286,33.345Z" transform="translate(-15.033)" fill="#1f8ced"/>
    <path id="Path_995" data-name="Path 995" d="M45.283,29.531a.394.394,0,0,0-.517-.21,5.718,5.718,0,0,0-2.7,2.375.395.395,0,1,0,.682.4,4.926,4.926,0,0,1,2.322-2.045.394.394,0,0,0,.21-.518Z" transform="translate(-20.72 -4.676)" fill="#fff"/>
  </g>
</svg>
