<svg xmlns="http://www.w3.org/2000/svg" xmlns:xlink="http://www.w3.org/1999/xlink" width="98.135" height="107.16" viewBox="0 0 98.135 107.16">
  <defs>
    <linearGradient id="linear-gradient" x1="0.5" y1="1" x2="0.5" y2="0.187" gradientUnits="objectBoundingBox">
      <stop offset="0" stop-color="#1f8ced"/>
      <stop offset="1" stop-color="#65b7ff"/>
    </linearGradient>
  </defs>
  <g id="Group_6423" data-name="Group 6423" transform="translate(-145 -259.42)">
    <g id="logo">
      <path id="Path_3540" data-name="Path 3540" d="M50.833,31.331a21,21,0,0,1,36.334,0l32.549,56.135A21,21,0,0,1,101.549,119h-65.1A21,21,0,0,1,18.284,87.466Z" transform="translate(264 244) rotate(90)" fill="url(#linear-gradient)"/>
      <g id="stethoscope" transform="translate(156.999 221.992)">
        <g id="Group_2" data-name="Group 2" transform="translate(0 87.08)">
          <g id="Group_1" data-name="Group 1" transform="translate(0 0)">
            <path id="Path_1" data-name="Path 1" d="M2.622,224.339c-.687-.686-.619-1.112-.6-1.252.126-.792,1.262-1.533,1.647-1.729a1.008,1.008,0,1,0-.9-1.8c-.247.123-2.419,1.261-2.734,3.206a3.389,3.389,0,0,0,1.16,3l10.174,10.174,1.425-1.425Z" transform="translate(0 -219.448)" fill="#fff"/>
          </g>
        </g>
        <g id="Group_4" data-name="Group 4" transform="translate(9.106 77.973)">
          <g id="Group_3" data-name="Group 3">
            <path id="Path_2" data-name="Path 2" d="M78.616,148.334a3.389,3.389,0,0,0-3-1.161c-1.945.315-3.083,2.489-3.206,2.735a1.008,1.008,0,1,0,1.8.9c.157-.314.91-1.515,1.726-1.647.141-.023.567-.091,1.255.6l10.174,10.174,1.424-1.425Z" transform="translate(-72.301 -147.137)" fill="#fff"/>
          </g>
        </g>
        <g id="Group_6" data-name="Group 6" transform="translate(24.028 68.008)">
          <g id="Group_5" data-name="Group 5">
            <path id="Path_3" data-name="Path 3" d="M218.31,76.539l-5.454-5.454a10.535,10.535,0,0,0-14.883,0,10.684,10.684,0,0,0-3.173,7.365,10.128,10.128,0,0,0,2.991,7.424L208.622,96.7a7.863,7.863,0,0,1,2.33,5.345,7.067,7.067,0,0,1-2.065,5.258,7.512,7.512,0,0,1-10.6-.268l-4.923-4.922a1.511,1.511,0,1,0-2.137,2.137l4.923,4.923a10.867,10.867,0,0,0,7.684,3.212,10.07,10.07,0,0,0,10.138-10.425,10.871,10.871,0,0,0-3.215-7.395l-10.83-10.831a7.131,7.131,0,0,1-2.107-5.228,7.678,7.678,0,0,1,2.288-5.288,7.512,7.512,0,0,1,10.609,0l5.454,5.454a1.511,1.511,0,0,0,2.137-2.137Z" transform="translate(-190.785 -68.008)" fill="#fff"/>
          </g>
        </g>
        <g id="Group_8" data-name="Group 8" transform="translate(10.9 88.875)">
          <g id="Group_7" data-name="Group 7" transform="translate(0 0)">
            <path id="Path_4" data-name="Path 4" d="M101.925,234.137a1.511,1.511,0,1,0-2.137,2.137,7.941,7.941,0,0,1,2.288,5.418,7.3,7.3,0,0,1-2.107,5.36,7.449,7.449,0,0,1-5.4,2.14,7.873,7.873,0,0,1-5.44-2.255,1.511,1.511,0,0,0-2.137,2.137,10.774,10.774,0,0,0,7.54,3.14h.139a10.415,10.415,0,0,0,7.439-3.026,10.29,10.29,0,0,0,2.992-7.555A10.837,10.837,0,0,0,101.925,234.137Z" transform="translate(-86.545 -233.694)" fill="#fff"/>
          </g>
        </g>
        <g id="Group_10" data-name="Group 10" transform="translate(48.25 75.372)">
          <g id="Group_9" data-name="Group 9" transform="translate(0 0)">
            <path id="Path_5" data-name="Path 5" d="M389.737,126.483a6.631,6.631,0,1,0,6.631,6.631A6.638,6.638,0,0,0,389.737,126.483Zm0,10.239a3.608,3.608,0,1,1,3.608-3.608A3.612,3.612,0,0,1,389.737,136.722Z" transform="translate(-383.106 -126.483)" fill="#fff"/>
          </g>
        </g>
        <g id="Group_12" data-name="Group 12" transform="translate(53.372 80.493)">
          <g id="Group_11" data-name="Group 11" transform="translate(0 0)">
            <circle id="Ellipse_1" data-name="Ellipse 1" cx="1.509" cy="1.509" r="1.509" fill="#fff"/>
          </g>
        </g>
        <g id="Group_14" data-name="Group 14" transform="translate(1.581 85.46)">
          <g id="Group_13" data-name="Group 13" transform="translate(0 0)">
            <ellipse id="Ellipse_2" data-name="Ellipse 2" cx="1.624" cy="1.392" rx="1.624" ry="1.392" transform="translate(0 2.297) rotate(-45)" fill="#fff"/>
          </g>
        </g>
        <g id="Group_16" data-name="Group 16" transform="translate(7.16 79.885)">
          <g id="Group_15" data-name="Group 15" transform="translate(0 0)">
            <ellipse id="Ellipse_3" data-name="Ellipse 3" cx="1.625" cy="1.392" rx="1.625" ry="1.392" transform="translate(0 2.298) rotate(-45)" fill="#fff"/>
          </g>
        </g>
      </g>
    </g>
  </g>
</svg>
