<svg xmlns="http://www.w3.org/2000/svg" width="15.642" height="15.642" viewBox="0 0 15.642 15.642">
  <g id="Search_Icon" data-name="Search Icon" transform="translate(-327.929 -113.929)">
    <rect id="Rectangle_3854" data-name="Rectangle 3854" width="0.521" height="3.247" transform="translate(335.565 121.934) rotate(-45)" fill="#ece7ea"/>
    <ellipse id="Ellipse_26" data-name="Ellipse 26" cx="4.821" cy="4.821" rx="4.821" ry="4.821" transform="translate(327.929 113.929)" fill="#1f8ced"/>
    <ellipse id="Ellipse_27" data-name="Ellipse 27" cx="3.789" cy="3.789" rx="3.789" ry="3.789" transform="translate(328.961 114.961)" fill="#ece7ea"/>
    <path id="Path_1560" data-name="Path 1560" d="M286.473,61.058a.261.261,0,0,0,.184-.445,3,3,0,0,0-4.237,0,.261.261,0,1,0,.369.369,2.475,2.475,0,0,1,3.5,0A.26.26,0,0,0,286.473,61.058Z" transform="translate(48.212 56.018)" fill="#fff"/>
    <path id="Path_1561" data-name="Path 1561" d="M0,325.115l4.022,4.022c.419.419.853.174,1.272-.245s.664-.853.245-1.272L1.517,323.6l-1.25.267Z" transform="translate(337.815 -199.783)" fill="#1b4145"/>
    <path id="Path_1562" data-name="Path 1562" d="M139.059,299.112l.49.49,1.517-1.517-.49-.49a1.073,1.073,0,0,0-1.517,1.517Z" transform="translate(198.266 -174.27)" fill="#c2b8b9"/>
  </g>
</svg>
